<svg xmlns="http://www.w3.org/2000/svg" xmlns:xlink="http://www.w3.org/1999/xlink" viewBox="0,0,256,256" width="50px" height="50px" fill-rule="nonzero"><g transform=""><g transform="translate(254.85065,266.25869) rotate(180) skewX(0)" fill="#00ff00" fill-rule="nonzero" stroke="#00ff00" stroke-width="5.12" stroke-linecap="butt" stroke-linejoin="round" stroke-miterlimit="10" stroke-dasharray="" stroke-dashoffset="0" font-family="none" font-weight="none" font-size="none" text-anchor="none" style="mix-blend-mode: normal"><path d="M244.58468,141.29739c0,50.34 -31.66,93.42 -76.16,110.24c-2.66,0.96 -5.58,-0.4 -6.56,-3.04l-25.44,-67.04c-0.52,-1.3 -0.48,-2.74 0.1,-4c0.56,-1.28 1.62,-2.26 2.94,-2.72c13.54,-5.12 23.2,-18.06 23.2,-33.44c0,-19.86 -15.98,-35.84 -35.84,-35.84c-19.86,0 -35.84,15.98 -35.84,35.84c0,15.38 9.66,28.32 23.2,33.44c1.32,0.46 2.38,1.44 2.94,2.72c0.58,1.26 0.62,2.7 0.1,4l-25.44,67.04c-0.98,2.64 -3.9,4 -6.56,3.04c-44.5,-16.82 -76.16,-59.9 -76.16,-110.24c0,-64.98 52.78,-117.76 117.76,-117.76c64.98,0 117.76,52.78 117.76,117.76z" id="strokeMainSVG"></path></g><g fill-opacity="0.01176" fill="#fa5252" fill-rule="nonzero" stroke="none" stroke-width="1" stroke-linecap="butt" stroke-linejoin="miter" stroke-miterlimit="10" stroke-dasharray="" stroke-dashoffset="0" font-family="none" font-weight="none" font-size="none" text-anchor="none" style="mix-blend-mode: normal"><g transform="translate(254.82468,262.08524) rotate(-180) scale(5.12,5.12) skewX(0)"><path d="M25,2c-12.69141,0 -23,10.30859 -23,23c0,9.83203 6.18359,18.24609 14.875,21.53125c0.51953,0.1875 1.08984,-0.07812 1.28125,-0.59375l4.96875,-13.09375c0.10156,-0.25391 0.09375,-0.53516 -0.01953,-0.78125c-0.10937,-0.25 -0.31641,-0.44141 -0.57422,-0.53125c-2.64453,-1 -4.53125,-3.52734 -4.53125,-6.53125c0,-3.87891 3.12109,-7 7,-7c3.87891,0 7,3.12109 7,7c0,3.00391 -1.88672,5.53125 -4.53125,6.53125c-0.25781,0.08984 -0.46484,0.28125 -0.57422,0.53125c-0.11328,0.24609 -0.12109,0.52734 -0.01953,0.78125l4.96875,13.09375c0.19141,0.51563 0.76172,0.78125 1.28125,0.59375c8.69141,-3.28516 14.875,-11.69922 14.875,-21.53125c0,-12.69141 -10.30859,-23 -23,-23zM25,4c11.60938,0 21,9.39063 21,21c0,8.62109 -5.26953,15.91797 -12.6875,19.15625l-4.25,-11.21875c2.91016,-1.49219 4.9375,-4.44922 4.9375,-7.9375c0,-4.95703 -4.04297,-9 -9,-9c-4.95703,0 -9,4.04297 -9,9c0,3.48828 2.02734,6.44531 4.9375,7.9375l-4.25,11.21875c-7.41797,-3.23828 -12.6875,-10.53516 -12.6875,-19.15625c0,-11.60937 9.39063,-21 21,-21z"></path></g></g></g></svg>